<?xml version="1.0" encoding="UTF-8" standalone="no"?>
<svg
   fill="none"
   viewBox="0 0 48 48"
   id="Location-Pin-3--Streamline-Plump.svg"
   height="12"
   width="12"
   version="1.1"
   sodipodi:docname="Location-Pin-3--Streamline-Plump.svg"
   xml:space="preserve"
   inkscape:version="1.3.2 (091e20e, 2023-11-25, custom)"
   xmlns:inkscape="http://www.inkscape.org/namespaces/inkscape"
   xmlns:sodipodi="http://sodipodi.sourceforge.net/DTD/sodipodi-0.dtd"
   xmlns="http://www.w3.org/2000/svg"
   xmlns:svg="http://www.w3.org/2000/svg"><defs
     id="defs1" /><sodipodi:namedview
     id="namedview1"
     pagecolor="#ffffff"
     bordercolor="#000000"
     borderopacity="0.25"
     inkscape:showpageshadow="2"
     inkscape:pageopacity="0.0"
     inkscape:pagecheckerboard="0"
     inkscape:deskcolor="#d1d1d1"
     inkscape:zoom="17.9375"
     inkscape:cx="24"
     inkscape:cy="24"
     inkscape:window-width="1920"
     inkscape:window-height="1057"
     inkscape:window-x="1912"
     inkscape:window-y="-8"
     inkscape:window-maximized="1"
     inkscape:current-layer="layer1" /><desc
     id="desc1">Location Pin 3 Streamline Icon: https://streamlinehq.com</desc><g
     inkscape:groupmode="layer"
     id="layer1"
     inkscape:label="Layer 1"><g
       style="fill:none"
       id="g1"
       transform="matrix(0.88007946,0,0,0.88007946,1.2680203,7.4627894)"><g
         id="user-pin--navigation-map-maps-pin-user-gps-location"><g
           id="g2"
           transform="matrix(1.1187718,0,0,1.1015486,-0.58644975,0.71191819)"><path
             id="Subtract_2"
             fill="#8fbffa"
             fill-rule="evenodd"
             d="M 8,18.07 C 8,9.2 15.16,2 24,2 c 8.84,0 16,7.2 16,16.07 0,5.66 -2.858,10.453 -6.038,14.041 -3.187,3.597 -6.785,6.086 -8.475,7.157 a 2.765,2.765 0 0 1 -2.974,0 C 20.823,38.196 17.224,35.708 14.038,32.111 10.858,28.523 8,23.73 8,18.07 Z"
             clip-rule="evenodd"
             stroke-width="1"
             style="fill:#c4b3ff;fill-opacity:1"
             transform="matrix(1.1839514,0,0,1.1839514,-4.5339951,-9.3785155)" /><path
             id="Ellipse 135"
             fill="#8fbffa"
             d="m 17.5,8.5 a 6.5,6.5 0 1 0 13,0 6.5,6.5 0 1 0 -13,0"
             stroke-width="1"
             style="fill:#8136f2;fill-opacity:1" /><path
             id="Union"
             fill="#8fbffa"
             d="m 24,16.5 c -2.783,0 -4.819,0.08 -6.206,0.167 -1.652,0.104 -3.119,1.052 -3.81,2.58 -0.915594,2.019709 -1.603497,4.13507 -2.051,6.307 -0.399,1.968 1.127,3.67 3.064,3.754 0.526,0.023 1.112,0.046 1.751,0.068 l 0.299071,4.034102 0.548168,0.459909 c 0.979215,0.75966 1.071635,0.850961 2.090536,1.579188 1.227462,0.902464 0.689124,0.480233 1.414484,1.003088 0.679181,0.431705 1.058013,0.719389 1.493473,0.912864 L 22.975648,37.485039 23.201,32.975 c 0.01333,-0.266333 0.233333,-0.475334 0.5,-0.475 h 0.597 c 0.266667,-3.34e-4 0.486667,0.208667 0.5,0.475 L 25.020457,37.427115 25.098,38.979 c 0.03718,0.833633 0.755824,1.471722 1.588,1.41 0.36,-0.029 0.705,-0.06 1.027,-0.093 1.634,-0.164 2.84,-1.504 2.96,-3.11 l 0.578,-7.81 c 0.64,-0.022 1.226,-0.045 1.751,-0.068 1.937,-0.084 3.463,-1.786 3.064,-3.754 -0.447206,-2.171883 -1.134772,-4.287241 -2.05,-6.307 -0.692,-1.528 -2.16,-2.476 -3.81,-2.58 C 28.818,16.58 26.782,16.5 24,16.5 Z"
             stroke-width="1"
             style="fill:#8236f2;fill-opacity:1"
             sodipodi:nodetypes="scccccccccccccccccccccccccs" /></g></g></g></g></svg>
